<svg width="74" height="81" fill="none" xmlns="http://www.w3.org/2000/svg"><g clip-path="url(#a)"><path d="M45.457 21.417c.83-.256 2.272-.271 3.272.605 0-.938-.814-1.776-1.093-1.884-.38.07-1.636.612-2.179 1.279ZM53.334 10.284c-.101-.333 3.28-.341 3.28 1.775 0 1.42-2.024 2.094-2.024 3.567 0 .682.736 1.194.969 1.194-.52-2.365 1.636-1.132 2.217-.683-1.155-3.186 1.45-3.163 1.194-4.62-.178-1.024-2.442-.714-3.264-1.225-1.458-.915-3.179-4.481-4.31-.915 2.116 1.961.883 4.853-1.8 4.853 0 0-.015.426.009.457 3.202-.17 4.318-2.52 3.729-4.403ZM15.973 16.13c.581-.442 2.736-1.683 2.217.682.225 0 .961-.504.961-1.186 0-1.473-2.023-2.148-2.023-3.567 0-2.124 3.388-2.108 3.287-1.775-.59 1.884.527 4.24 3.737 4.396.023-.031.008-.458.008-.458-2.683 0-3.916-2.891-1.8-4.853-1.131-3.566-2.852 0-4.31.915-.821.52-3.085.21-3.264 1.225-.263 1.457 2.342 1.442 1.187 4.62ZM25.066 22.022c1.008-.876 2.45-.86 3.272-.605-.543-.667-1.806-1.21-2.178-1.28-.28.11-1.094.947-1.094 1.885ZM38.433 2.283 36.875.376l-1.566 1.907 1.566 2 1.558-2ZM47.356 8.043l-1.117-1.356-1.108 1.356 1.108 1.318 1.117-1.318ZM28.618 8.043 27.5 6.687l-1.108 1.356L27.5 9.361l1.117-1.318ZM27.695 50.986a3.292 3.292 0 0 0 1.558-1.21c-.256-.108-.574-.736-.535-1.589-.527.24-1.202.163-1.543-.1-.643-.644.124-1.443.295-1.985-1.341-.876-1-1.512-.535-1.977a3.445 3.445 0 0 1 1.186-.636 3.573 3.573 0 0 1 1.341-.14l.132.008a7.561 7.561 0 0 1-.093-1.116v-.465l-.039-.008c-1.535-.473-3.046-.341-4.225.853-1.326 1.333-1.643 2.418-3.318 3.07.643 1.1 3.326.062 4.295.03-.078 1.675-2.225 2.52-2.892 2.955.644.643 2.442.201 3.473-.07-.03.628.078.946-1.077 2.488a3.377 3.377 0 0 0 1.977-.108ZM48.496 42.605c-1.179-1.194-2.69-1.325-4.225-.853l-.024.008v.473c0 .38-.038.744-.093 1.109h.117a3.42 3.42 0 0 1 1.34.14c.435.131.838.348 1.187.635.465.465.798 1.1-.535 1.977.17.55.938 1.341.295 1.985-.341.263-1.016.34-1.543.1.046.861-.272 1.481-.535 1.59a3.292 3.292 0 0 0 3.527 1.31c-1.163-1.543-1.046-1.86-1.077-2.489 1.03.264 2.83.714 3.473.07-.667-.426-2.814-1.28-2.892-2.954.97.031 3.644 1.062 4.295-.03-1.667-.652-1.992-1.73-3.31-3.07Z" fill="#4C4D4B"/><path d="M49.744 19.409c1.147.17 1.504.946 1.574 1.186.387-.325.744-1.465.605-2.21-.66-3.527-8.862-1.186-12.986-2.69-.078 1.032 1.271 2.675 2.566 3.288-2.21 1.915-4.194 5.775-4.59 10.497-.395-4.714-2.38-8.575-4.59-10.497 1.295-.613 2.644-2.256 2.567-3.288-4.133 1.497-12.335-.837-12.994 2.69-.14.745.217 1.885.605 2.21.07-.24.434-1.015 1.574-1.186 5.775-.876 10.598 8.032 6.248 11.63-.07.053-.03.154.062.154h13.056c.085 0 .124-.1.062-.155-4.357-3.597.465-12.505 6.241-11.629ZM25.43 14.68h4.14c3.482 0 5.056-2.14 5.529-3.993h3.543c.472 1.853 2.038 3.993 5.527 3.993h4.148s.729-.985.907-1.473c.651-1.752-.178-2.574-1.403-2.574l-1.582 1.434-1.574-1.426c-1.217 0-2.054.814-1.403 2.573.085.225.287.551.473.846-1.473-.202-3.35-1.21-3.76-3.365 0 0 1.085-1.729 1.357-2.427.977-2.512-.272-3.535-2.101-3.535l-2.365 2.776-2.364-2.776c-1.83 0-3.078 1.031-2.101 3.535.27.698 1.356 2.427 1.356 2.427-.41 2.155-2.287 3.163-3.76 3.365.194-.295.388-.62.473-.846.651-1.752-.178-2.566-1.403-2.566l-1.582 1.427-1.573-1.427c-1.225 0-2.055.814-1.404 2.574.202.473.923 1.45.923 1.458ZM68.273 27.518c-.798.404-5.489 2.605-11.505 1.791.062-.287.116-.574.155-.868 4-.48 7.249-1.155 9.327-2.31 2.364-1.318 3.395-4.458 2.201-6.792-.03-.062-.116-.07-.162-.023-.652.752-4.76 5.218-11.234 6.613a10.94 10.94 0 0 0-.093-1c3.147-1.783 6.21-3.838 7.675-5.714 2.21-2.837 2.008-6.458-.093-8.31a.093.093 0 0 0-.14.015c-.007 0-.007.008-.007.008-.667 1.1-6.893 11.156-13.723 15.505-.085.054-.17.108-.255.155a.328.328 0 0 0-.055.527c.791.713 1.28 1.706 1.28 2.815 0 1.914-1.481 3.511-3.435 3.86-.992.194-2.427.14-3.807-.318a.091.091 0 0 0-.124.086v6.078c0 .1.148.124.186.03.838-2.216 3.342-2.69 4.443-2.69.395 2.373 1.1 4.334 2.015 5.389 1.489 1.721 3.923 1.69 4.978.504.03-.039.03-.093-.008-.124-.008-.008-.008-.008-.016-.008-.62-.357-4.17-2.535-4.876-6.101.28-.093.55-.21.814-.334 1.147 1.892 2.814 3.582 4.155 4.226 2.256 1.077 4.319.558 5.234-1.032.03-.054-.008-.124-.078-.131-1.395-.109-5.675-1.342-7.497-4.327.21-.193.411-.395.605-.604 1.907 1.45 4.605 2.736 6.535 3 2.257.31 4.815-.41 4.877-3.039 0-.054-.047-.093-.1-.093-.807.047-6.118.28-9.909-1.892.132-.248.256-.504.364-.767 0 0 5.722 1.357 8.436.907 2.697-.442 4.271-2.45 3.969-4.954 0-.07-.078-.109-.132-.078ZM24.842 36.969c1.1 0 3.605.473 4.442 2.69.04.093.186.07.186-.03V33.55c0-.062-.062-.1-.124-.085-1.38.457-2.814.511-3.806.318-1.954-.35-3.435-1.939-3.435-3.861 0-1.101.489-2.101 1.28-2.815.17-.147.147-.403-.047-.527-.085-.054-.17-.1-.256-.155-6.83-4.341-13.056-14.397-13.722-15.498a.101.101 0 0 0-.14-.03c-.008 0-.008.007-.008.007-2.1 1.845-2.302 5.466-.093 8.311 1.466 1.876 4.528 3.93 7.676 5.714-.047.333-.078.667-.093 1-6.466-1.388-10.575-5.845-11.234-6.605-.047-.055-.132-.04-.163.015-1.186 2.334-.155 5.474 2.202 6.784 2.07 1.155 5.326 1.83 9.326 2.31.047.287.093.582.163.869-6.008.814-10.69-1.38-11.497-1.791-.062-.031-.132.007-.14.07-.302 2.496 1.272 4.504 3.97 4.946 2.713.45 8.427-.9 8.435-.908.116.256.24.512.372.768-3.784 2.17-9.102 1.946-9.908 1.892-.054 0-.1.038-.1.093.061 2.628 2.62 3.341 4.876 3.039 1.93-.264 4.628-1.543 6.535-2.993.194.21.395.411.605.605-1.822 2.985-6.102 4.217-7.497 4.326-.07.008-.109.078-.078.132.915 1.581 2.977 2.109 5.233 1.03 1.342-.643 3.009-2.333 4.156-4.224.264.132.535.24.814.333-.713 3.574-4.256 5.745-4.877 6.102a.088.088 0 0 0-.03.116c.007.008.007.008.007.015 1.055 1.186 3.489 1.21 4.978-.504.891-1.046 1.597-3.015 1.992-5.38ZM38.689 52.265c.72-1.985 1.628-4.039 3.186-4.039.768 0 1.442.729 1.938.806.101.024.21.016.31-.03a.472.472 0 0 0 .24-.202c.18-.295.094-.838.094-1.21.558.031.984.132 1.349 0a.44.44 0 0 0 .232-.194.454.454 0 0 0 .055-.302c-.062-.388-.652-.9-.838-1.24.24-.202.907-.326 1.047-.605a.454.454 0 0 0 .039-.302.433.433 0 0 0-.163-.256c-.55-.38-1.21-.55-1.876-.489h-.326c-.86 3.117-3.713 5.412-7.101 5.412s-6.234-2.295-7.102-5.412h-.341a2.784 2.784 0 0 0-1.876.489.473.473 0 0 0-.163.256c-.023.1-.008.209.039.302.14.287.806.403 1.046.605-.186.349-.783.852-.837 1.24-.015.1 0 .21.054.302.055.086.14.155.233.194.364.132.79.031 1.349 0 0 .372-.078.915.093 1.21.054.093.14.163.24.201.101.039.21.055.31.031.496-.077 1.171-.806 1.939-.806 1.558 0 2.465 2.054 3.186 4.04-3.55.829-7.978 3.201-8.862 5.79-.325.993.776 2.319 2.164 2.598h.031c.054 0 .108 0 .108-.055.721-3.798 4.838-6.66 7.009-7.17.1.263.054.216.162.487-2.325 1.11-4.597 3.427-5.264 6.187-.271 1.272 1.109 2.427 2.256 2.706h.031c.055 0 .109 0 .109-.054.225-3.458 1.752-6.42 3.132-7.807.047.263.054.527.1.744 0 0-1.441 3.977-1.441 6.846 0 1.325 1.992 2.256 2.256 2.426.008 0 .015-.008.015-.008.008 0 .016.008.016.008.263-.178 2.256-1.1 2.256-2.426 0-2.869-1.442-6.846-1.442-6.846.054-.21.054-.473.108-.744 1.38 1.395 2.908 4.357 3.133 7.807 0 .054.054.054.108.054h.031c1.148-.28 2.535-1.434 2.256-2.706-.667-2.76-2.938-5.078-5.264-6.187.108-.27.054-.224.163-.488 2.17.512 6.295 3.373 7.008 7.171 0 .055.055.055.109.055h.031c1.388-.28 2.48-1.597 2.163-2.598-.868-2.589-5.288-4.961-8.838-5.79Z" fill="#4C4D4B"/><path fill-rule="evenodd" clip-rule="evenodd" d="M43.364 31.953h-13.01a.261.261 0 0 0-.263.264v9.97a6.773 6.773 0 0 0 6.776 6.776 6.778 6.778 0 0 0 6.776-6.776v-9.97a.28.28 0 0 0-.28-.264Z" fill="#008BFF"/><path d="M41.185 36.744a1.178 1.178 0 1 0 0-2.357 1.178 1.178 0 0 0 0 2.357ZM37.154 42.171a.3.3 0 0 0-.504-.062l-2.675 3.225a.31.31 0 0 0 .031.419s.008 0 .008.008a.305.305 0 0 0 .426-.04l2.667-3.216a.328.328 0 0 0 .047-.334ZM36.44 41.357a.3.3 0 0 0-.504-.062l-2.651 3.194a.31.31 0 0 0 .03.419s.008 0 .008.008a.305.305 0 0 0 .427-.04l2.651-3.193a.306.306 0 0 0 .039-.326c0 .008 0 .008 0 0ZM35.72 40.566a.3.3 0 0 0-.505-.062l-2.628 3.171a.31.31 0 0 0 .031.419s.008 0 .008.008a.305.305 0 0 0 .427-.04L35.68 40.9c.07-.101.093-.225.038-.334ZM37.479 38.28a.279.279 0 0 0 .473.069l.69-.783.232.201-.744.9a.305.305 0 0 0-.031.349v.007c.1.171.341.194.473.04l.744-.9.225.194-.744.938a.314.314 0 0 0-.008.372.29.29 0 0 0 .465.008l.737-.923.007-.008.04-.046c.007-.016.015-.023.015-.031v-.008l.434-1.326a.32.32 0 0 0-.086-.325l-.635-.55a.292.292 0 0 0-.334-.032l-1.124.651a.54.54 0 0 0-.077.063l-.055.054-.666.752a.337.337 0 0 0-.031.333Z" fill="#fff"/><path d="M41.688 43.024a.138.138 0 0 0-.054-.062c-.837-.651-1.59-1.365-2.148-1.907a44.466 44.466 0 0 1-1.976-2.086 55.833 55.833 0 0 1-1.869-2.186c-.496-.62-1.147-1.442-1.729-2.31a.174.174 0 0 0-.24-.047.174.174 0 0 0-.047.24c.59.884 1.24 1.714 1.745 2.342a56.976 56.976 0 0 0 1.876 2.201c.62.698 1.287 1.404 1.992 2.101.559.55 1.31 1.264 2.148 1.915.023.07-.085.435-.504.907-.419.473-.744.66-.814.629-.062-.101.078-.435.504-.908.132-.147.488-.41.302-.566l-.108-.093a.204.204 0 0 0-.047-.038c-.636-.52-1.225-1.101-1.806-1.667a42.156 42.156 0 0 1-1.985-2.093 50.793 50.793 0 0 1-1.876-2.194 34.406 34.406 0 0 1-1.489-1.97.371.371 0 0 0-.558-.062l-.891.838a.377.377 0 0 0 .023.566 37.008 37.008 0 0 1 1.83 1.65 56.044 56.044 0 0 1 2.023 2.055 46.42 46.42 0 0 1 1.915 2.163c.512.628 1.41 1.83 1.884 2.512l.008.008c0 .008.007.008.007.016.016.023.031.038.04.038.015.016.03.024.046.04.302.177.837-.203 1.256-.683.426-.489.736-1.062.542-1.35Z" fill="#fff"/></g><path d="M0 78.133v-9.806h3.98a6.011 6.011 0 0 1 1.782.232c.456.13.88.355 1.246.659.331.28.585.641.738 1.048a4.266 4.266 0 0 1 0 2.816 2.543 2.543 0 0 1-.735 1.05 3.46 3.46 0 0 1-1.25.661 6.106 6.106 0 0 1-1.78.232H2.51v3.108H0Zm2.52-5.184h1.191c.646 0 1.1-.106 1.359-.32a1.348 1.348 0 0 0 0-1.906c-.26-.215-.713-.323-1.359-.323h-1.19v2.55ZM12.467 78.317c-.5.003-.996-.075-1.47-.231a3.34 3.34 0 0 1-1.206-.698 3.306 3.306 0 0 1-.811-1.198 4.464 4.464 0 0 1-.295-1.689v-.28c-.012-.546.089-1.09.295-1.597.182-.437.46-.83.811-1.147.351-.312.761-.55 1.206-.702a4.689 4.689 0 0 1 2.94 0c.445.151.855.39 1.206.702.353.317.631.709.814 1.147.205.507.304 1.05.293 1.598v.28a4.41 4.41 0 0 1-.293 1.673 3.282 3.282 0 0 1-.814 1.198c-.348.32-.758.563-1.206.715-.473.162-.97.242-1.47.24m0-1.794a1.58 1.58 0 0 0 .674-.14 1.27 1.27 0 0 0 .489-.407c.139-.194.241-.412.302-.644.072-.274.107-.558.104-.842v-.28a2.727 2.727 0 0 0-.104-.763 1.726 1.726 0 0 0-.303-.595 1.347 1.347 0 0 0-.49-.402 1.689 1.689 0 0 0-1.346 0c-.19.09-.359.22-.491.384-.138.177-.24.38-.3.596a2.638 2.638 0 0 0-.107.763v.28a3.14 3.14 0 0 0 .107.854c.06.232.162.451.3.646.127.173.296.31.49.397.213.093.442.139.672.135M20.874 78.317a4.69 4.69 0 0 1-1.526-.24 3.156 3.156 0 0 1-1.982-1.905 4.557 4.557 0 0 1-.28-1.681v-.28a3.873 3.873 0 0 1 .3-1.57c.187-.438.464-.832.814-1.154.35-.318.761-.56 1.209-.713.47-.167.966-.253 1.465-.254a4.433 4.433 0 0 1 1.478.224c.393.131.756.338 1.07.608.285.25.514.558.672.903.16.35.255.725.28 1.109h-2.213a1.427 1.427 0 0 0-.412-.779 1.256 1.256 0 0 0-.875-.272 1.61 1.61 0 0 0-.623.117 1.38 1.38 0 0 0-.51.351 1.64 1.64 0 0 0-.327.588 2.59 2.59 0 0 0-.12.834v.28c-.006.303.031.606.112.898.062.23.17.444.316.63a1.2 1.2 0 0 0 .495.37c.206.082.425.123.647.12.297.01.59-.08.831-.255.24-.19.403-.462.456-.763h2.213a3.01 3.01 0 0 1-.288 1.172c-.174.347-.42.653-.72.898-.32.255-.686.448-1.078.568a4.672 4.672 0 0 1-1.394.196M25.428 80.934V70.708h1.986v1.018c.226-.335.523-.616.87-.822a2.653 2.653 0 0 1 1.443-.384c1.048 0 1.839.308 2.383.923.544.616.812 1.527.812 2.76v.28a5.599 5.599 0 0 1-.224 1.661 3.22 3.22 0 0 1-.646 1.198c-.28.315-.628.562-1.018.72a3.405 3.405 0 0 1-1.317.255c-.416 0-.826-.098-1.196-.288a2.544 2.544 0 0 1-.946-.834v3.739h-2.147Zm3.782-4.398c.206.002.41-.043.595-.132.186-.092.349-.224.476-.387.146-.19.253-.405.316-.636.078-.29.116-.59.111-.89v-.28a2.959 2.959 0 0 0-.106-.847 1.528 1.528 0 0 0-.308-.59c-.13-.15-.293-.27-.476-.349a1.507 1.507 0 0 0-.608-.12 1.952 1.952 0 0 0-.638.105 1.369 1.369 0 0 0-.509.323c-.15.152-.266.333-.343.532a1.98 1.98 0 0 0-.125.735v.702c-.003.26.04.518.125.763.075.215.191.413.343.582.14.156.314.278.509.357.203.08.42.121.638.12M37.614 78.317a4.92 4.92 0 0 1-1.526-.232 3.192 3.192 0 0 1-2.035-1.905 4.466 4.466 0 0 1-.295-1.69v-.279a4.164 4.164 0 0 1 .287-1.61 3.177 3.177 0 0 1 1.961-1.844 4.56 4.56 0 0 1 1.466-.23c1.23 0 2.157.314 2.78.94.622.625.933 1.54.93 2.744v.763h-5.209c.002.253.055.503.156.735.084.194.208.367.363.51.148.129.321.226.509.284.195.061.398.092.603.092.337.017.673-.048.98-.189a.929.929 0 0 0 .462-.508h1.99a3.087 3.087 0 0 1-.392 1.058c-.185.3-.428.56-.715.763a3.026 3.026 0 0 1-1.018.455 5.44 5.44 0 0 1-1.302.148m-1.62-4.75h3.08a1.527 1.527 0 0 0-.117-.645c-.074-.161-.188-.3-.33-.405a1.296 1.296 0 0 0-.489-.219 2.78 2.78 0 0 0-.59-.06c-.191-.001-.382.022-.567.068a1.455 1.455 0 0 0-.491.231 1.2 1.2 0 0 0-.349.412 1.449 1.449 0 0 0-.147.619ZM45.878 78.317a4.893 4.893 0 0 1-1.526-.232 3.2 3.2 0 0 1-2.035-1.905 4.465 4.465 0 0 1-.292-1.69v-.279a4.167 4.167 0 0 1 .284-1.61c.178-.435.446-.827.786-1.15.34-.312.74-.549 1.178-.694a4.545 4.545 0 0 1 1.463-.23c1.233 0 2.16.314 2.78.94.62.625.931 1.54.931 2.744v.763H44.24c.001.253.053.503.153.735.084.193.208.367.363.51.148.129.322.226.51.284.194.061.398.092.602.092.338.016.674-.048.982-.189a.946.946 0 0 0 .463-.508H49.3a3.035 3.035 0 0 1-.392 1.058c-.184.3-.427.56-.715.763a2.984 2.984 0 0 1-1.017.455 5.44 5.44 0 0 1-1.303.148m-1.62-4.75h3.083a1.527 1.527 0 0 0-.12-.645 1.03 1.03 0 0 0-.328-.405 1.309 1.309 0 0 0-.49-.219 2.758 2.758 0 0 0-.588-.06c-.192-.001-.382.022-.568.068a1.432 1.432 0 0 0-.49.231c-.147.11-.268.25-.352.412a1.449 1.449 0 0 0-.147.619ZM54.075 78.317a4.69 4.69 0 0 1-1.527-.24 3.247 3.247 0 0 1-1.195-.714 3.204 3.204 0 0 1-.786-1.19 4.608 4.608 0 0 1-.28-1.682v-.28a3.875 3.875 0 0 1 .3-1.57c.188-.437.465-.83.814-1.154a3.47 3.47 0 0 1 1.209-.713c.47-.167.965-.253 1.465-.254a4.434 4.434 0 0 1 1.478.224c.398.131.766.34 1.083.615.285.252.514.56.674.903.16.35.254.726.28 1.11h-2.226a1.444 1.444 0 0 0-.414-.779 1.257 1.257 0 0 0-.875-.272 1.618 1.618 0 0 0-.623.117 1.348 1.348 0 0 0-.51.351c-.15.17-.263.37-.33.588a2.66 2.66 0 0 0-.12.834v.28c-.005.303.033.605.113.898.063.228.17.443.315.63.133.167.31.294.509.37.204.082.423.122.643.119.298.01.59-.08.832-.254.24-.191.402-.462.458-.764h2.213a3.052 3.052 0 0 1-.308 1.183 2.781 2.781 0 0 1-.722.898c-.32.255-.687.448-1.079.567a4.66 4.66 0 0 1-1.394.196M60.492 78.134v-5.66h-2.284v-1.765h6.726v1.765h-2.285v5.66h-2.157ZM65.913 80.934V70.71h1.99v1.017a2.67 2.67 0 0 1 2.309-1.206c1.048 0 1.843.308 2.383.924.541.615.812 1.535.812 2.76v.28a5.598 5.598 0 0 1-.224 1.66c-.128.44-.347.849-.644 1.198-.279.315-.627.562-1.017.72a3.407 3.407 0 0 1-1.318.255c-.415 0-.825-.098-1.195-.288a2.544 2.544 0 0 1-.926-.834v3.74h-2.17Zm3.783-4.398c.206.002.41-.043.595-.132.185-.092.348-.224.475-.387.147-.189.254-.405.316-.636.078-.29.116-.59.112-.89v-.28a3.058 3.058 0 0 0-.104-.847 1.565 1.565 0 0 0-.308-.59 1.363 1.363 0 0 0-.478-.349 1.51 1.51 0 0 0-.608-.12c-.218 0-.433.035-.639.105a1.37 1.37 0 0 0-.509.323 1.61 1.61 0 0 0-.343.532c-.088.235-.13.484-.125.735v.702c-.003.26.04.518.125.763.076.215.193.412.343.583.14.156.315.277.51.356.202.081.419.122.638.12" fill="#4C4D4B"/><defs><clipPath id="a"><path fill="#fff" transform="translate(4.53 .5)" d="M0 0h64.348v64.348H0z"/></clipPath></defs></svg>